<?xml version="1.0" encoding="UTF-8"?>
<svg id="_Слой_2" data-name="Слой 2" xmlns="http://www.w3.org/2000/svg" viewBox="0 0 34.35 29.74">
  <defs>
    <style>
      .cls-1, .cls-2 {
        fill: #1d1d1b;
      }

      .cls-3 {
        fill: #fbbf26;
      }

      .cls-3, .cls-2, .cls-4 {
        stroke: #1d1d1b;
        stroke-miterlimit: 10;
      }

      .cls-5 {
        fill: #fff;
      }

      .cls-4 {
        fill: #554495;
      }
    </style>
  </defs>
  <g id="_Слой_1-2" data-name="Слой 1">
    <path class="cls-4" d="M30.23,22.92h0c-.2.61-1.09.9-1.99.63l-16.53-4.9c-.9-.27-1.47-.98-1.27-1.6h0c.2-.61,1.09-.9,1.99-.63l16.53,4.9c.9.27,1.47.98,1.27,1.6Z"/>
    <ellipse class="cls-4" cx="29.14" cy="22.56" rx="1.93" ry="1.46" transform="translate(-5.2 35.93) rotate(-59.03)"/>
    <path class="cls-4" d="M4.12,22.92h0c.2.61,1.09.9,1.99.63l16.53-4.9c.9-.27,1.47-.98,1.27-1.6h0c-.2-.61-1.09-.9-1.99-.63l-16.53,4.9c-.9.27-1.47.98-1.27,1.6Z"/>
    <ellipse class="cls-4" cx="5.21" cy="22.56" rx="1.46" ry="1.93" transform="translate(-10.87 5.9) rotate(-30.97)"/>
    <g>
      <path class="cls-5" d="M12.33,15.91c-3.05-2.94-6.97-7.57-8.53-13.12C1.56,4.53.28,6.82.55,9.17c.47,4.2,5.66,7.11,11.78,6.74Z"/>
      <path class="cls-1" d="M12.33,15.91c-4.02-3.46-7.47-7.84-9-12.99,0,0,.76.25.76.25-7.86,6.71.64,13.03,8.24,12.74h0ZM12.33,15.91C3.15,17.29-5.26,8.93,4.07,1.97c0,0,.2.69.2.69,1.42,5.05,4.57,9.41,8.07,13.25h0Z"/>
    </g>
    <path class="cls-1" d="M2.95,7.92c2.28,3.16,5.28,5.35,8.35,7.74-3.69-1.1-7.32-3.89-8.35-7.74h0Z"/>
    <g>
      <path class="cls-5" d="M22.01,15.91c3.05-2.94,6.97-7.57,8.53-13.12,2.24,1.74,3.51,4.03,3.25,6.38-.47,4.2-5.66,7.11-11.78,6.74Z"/>
      <path class="cls-1" d="M22.01,15.91c3.49-3.85,6.65-8.2,8.07-13.25,0,0,.2-.69.2-.69,9.33,6.96.91,15.32-8.27,13.94h0ZM22.01,15.91c7.61.29,16.09-6.03,8.24-12.74,0,0,.76-.25.76-.25-1.53,5.15-4.98,9.53-9,12.99h0Z"/>
    </g>
    <path class="cls-1" d="M31.4,7.92c-1.02,3.84-4.65,6.64-8.35,7.74,3.07-2.39,6.07-4.58,8.35-7.74h0Z"/>
    <path class="cls-3" d="M24.73,20.79c-1.18,3.43-3.89,6.37-7.56,8.38-3.66-2.01-6.38-4.95-7.56-8.38,2.33.74,4.88,1.15,7.56,1.15s5.23-.41,7.56-1.15Z"/>
    <path class="cls-2" d="M25.39,16.93c0,1.34-.22,2.63-.66,3.86-2.33.74-4.88,1.15-7.56,1.15s-5.23-.41-7.56-1.15c-.43-1.23-.66-2.53-.66-3.86,0-.46.03-.92.08-1.36,2.48.87,5.24,1.34,8.14,1.34s5.66-.48,8.14-1.34c.05.45.08.91.08,1.36Z"/>
    <path class="cls-3" d="M25.31,15.56c-2.48.87-5.24,1.34-8.14,1.34s-5.66-.48-8.14-1.34c.19-1.61.71-3.14,1.51-4.56,2.07.57,4.3.88,6.62.88s4.55-.31,6.62-.88c.8,1.42,1.32,2.96,1.51,4.56Z"/>
    <path class="cls-2" d="M23.8,11c-2.07.57-4.3.88-6.62.88s-4.55-.31-6.62-.88c1.41-2.54,3.72-4.72,6.62-6.31,2.9,1.59,5.21,3.77,6.62,6.31Z"/>
    <path class="cls-1" d="M17.17,5.69c-.75-2.86,2.04-5.6,4.8-5.69-2.2,1.53-4.04,3.09-4.8,5.69h0Z"/>
    <path class="cls-1" d="M17.17,5.69C16.41,3.09,14.58,1.53,12.37,0c2.76.09,5.56,2.83,4.8,5.69h0Z"/>
  </g>
</svg>